<svg width="234" height="234" viewBox="0 0 234 234" fill="none" xmlns="http://www.w3.org/2000/svg">
<path d="M8.00195 163C8.00195 163 31.6487 154.719 44.002 145C51.0962 139.419 54.7375 130.271 57.002 121M226.002 163C226.002 163 202.399 154.663 190.002 145C182.876 139.446 179.39 130.291 177.002 121M57.002 121C62.3023 99.3004 63.0614 74.6884 84.002 77.5C103.297 80.0907 100.002 112.743 117.002 112.5C134.002 112.257 131.052 80.5388 150.002 77.5C171.046 74.1255 171.368 99.082 177.002 121M57.002 121C57.002 121 65.0804 115.517 71.002 114C94.0634 108.093 94.493 155.36 117.002 155.5C139.647 155.641 139.94 108.093 163.002 114C168.923 115.517 172.236 117.173 177.002 121M58.0019 226H176.002C203.616 226 226.002 203.614 226.002 176V58C226.002 30.3858 203.616 8 176.002 8H58.002C30.3877 8 8.00195 30.3858 8.00195 58V176C8.00195 203.614 30.3877 226 58.0019 226Z" stroke="#0D9488" stroke-width="16" stroke-linecap="round"/>
</svg>
